<svg width="240" height="32" viewBox="0 0 240 32" fill="none" xmlns="http://www.w3.org/2000/svg">
<g filter="url(#filter0_d)">
<path d="M15.768 13.992C15.496 15.288 15.28 16.632 15.12 18.024L15 18.168C11.64 18.056 9.216 18 7.728 18C6.544 18 5.432 18.08 4.392 18.24L4.536 17.136C5.256 17.04 5.744 16.856 6 16.584C6.272 16.296 6.408 15.808 6.408 15.12L6.432 5.04C6.432 4.528 6.368 4.184 6.24 4.008C6.128 3.832 5.896 3.744 5.544 3.744L4.728 3.792L4.68 3.696L4.848 2.64C6.48 2.688 7.592 2.712 8.184 2.712C10.088 2.712 11.568 2.696 12.624 2.664C13.68 2.616 14.6 2.536 15.384 2.424L15.456 2.568C15.168 3.832 14.984 5.16 14.904 6.552L13.752 6.648L13.8 5.616C13.8 5.056 13.728 4.672 13.584 4.464C13.44 4.24 13.128 4.096 12.648 4.032C12.168 3.952 11.328 3.912 10.128 3.912C9.568 3.912 9.184 3.928 8.976 3.96C8.768 3.992 8.632 4.072 8.568 4.2C8.504 4.312 8.464 4.528 8.448 4.848L8.256 9.504L10.728 9.528C11.352 9.528 12.328 9.44 13.656 9.264L13.752 9.384L13.416 10.8C11.64 10.752 10.52 10.728 10.056 10.728C9.528 10.728 8.912 10.784 8.208 10.896L8.112 15.48C8.112 15.944 8.152 16.272 8.232 16.464C8.312 16.64 8.472 16.76 8.712 16.824C8.968 16.888 9.4 16.92 10.008 16.92C11.352 16.92 12.304 16.856 12.864 16.728C13.44 16.6 13.848 16.344 14.088 15.96C14.328 15.576 14.512 14.92 14.64 13.992L15.696 13.872L15.768 13.992ZM24.3011 17.304C24.7811 17.176 25.1251 16.992 25.3331 16.752C25.5411 16.496 25.6451 16.16 25.6451 15.744L25.7411 10.992C25.7411 10.192 25.5651 9.576 25.2131 9.144C24.8771 8.712 24.3891 8.496 23.7491 8.496C23.2371 8.496 22.7171 8.632 22.1891 8.904C21.6611 9.16 21.1971 9.44 20.7971 9.744C20.6531 13.056 20.5811 15.024 20.5811 15.648C20.5811 16.144 20.6451 16.496 20.7731 16.704C20.9011 16.896 21.1251 16.992 21.4451 16.992C21.6211 16.992 21.7891 16.984 21.9491 16.968C22.1091 16.952 22.2211 16.944 22.2851 16.944L22.3331 17.04L22.1171 18.072C21.9731 18.056 21.6931 18.04 21.2771 18.024C20.8611 18.008 20.4131 18 19.9331 18C19.5171 18 19.0531 18.016 18.5411 18.048C18.0451 18.096 17.7171 18.128 17.5571 18.144L17.6771 17.16C18.1411 17.08 18.4691 16.936 18.6611 16.728C18.8531 16.52 18.9491 16.192 18.9491 15.744V9.888C18.9491 9.344 18.8611 8.968 18.6851 8.76C18.5091 8.536 18.2051 8.424 17.7731 8.424H17.5091L17.4371 8.328L17.5091 7.536C18.1971 7.424 18.8771 7.296 19.5491 7.152C20.2371 6.992 20.6771 6.888 20.8691 6.84L21.0131 7.032C20.9811 7.128 20.9331 7.336 20.8691 7.656C20.8051 7.96 20.7651 8.28 20.7491 8.616L20.7971 8.688C22.6211 7.472 23.7971 6.864 24.3251 6.864C25.3331 6.864 26.1331 7.144 26.7251 7.704C27.3171 8.264 27.6131 9.016 27.6131 9.96C27.6131 10.12 27.5651 10.856 27.4691 12.168C27.3411 13.832 27.2771 14.992 27.2771 15.648C27.2771 16.112 27.3411 16.456 27.4691 16.68C27.5971 16.888 27.8131 16.992 28.1171 16.992C28.2931 16.992 28.4611 16.984 28.6211 16.968C28.7811 16.952 28.8931 16.944 28.9571 16.944L29.0051 17.04L28.8131 18.072C28.6691 18.056 28.3971 18.04 27.9971 18.024C27.5971 18.008 27.1571 18 26.6771 18C26.2611 18 25.7811 18.04 25.2371 18.12C24.7091 18.2 24.3651 18.256 24.2051 18.288L24.3011 17.304ZM32.5056 3.552C32.1536 3.552 31.8656 3.44 31.6416 3.216C31.4336 2.992 31.3296 2.696 31.3296 2.328C31.3296 1.928 31.4656 1.592 31.7376 1.32C32.0096 1.048 32.3456 0.912 32.7456 0.912C33.0816 0.912 33.3616 1.032 33.5856 1.272C33.8096 1.496 33.9216 1.784 33.9216 2.136C33.9216 2.536 33.7856 2.872 33.5136 3.144C33.2416 3.416 32.9056 3.552 32.5056 3.552ZM29.9616 23.328L30.0096 23.136C30.6976 22.448 31.1616 21.68 31.4016 20.832C31.6576 19.984 31.7856 18.736 31.7856 17.088V9.648C31.7856 9.152 31.7136 8.816 31.5696 8.64C31.4416 8.448 31.1936 8.352 30.8256 8.352C30.6816 8.352 30.5456 8.36 30.4176 8.376C30.3056 8.392 30.2256 8.408 30.1776 8.424L30.2736 7.536C30.8816 7.456 31.5536 7.336 32.2896 7.176C33.0256 7.016 33.5056 6.912 33.7296 6.864L33.8496 7.152C33.5776 7.616 33.4416 11.344 33.4416 18.336C33.4416 19.488 33.1776 20.536 32.6496 21.48C32.1216 22.424 31.3696 23.192 30.3936 23.784L29.9616 23.328ZM41.1216 18.288C40.2096 18.288 39.4016 18.064 38.6976 17.616C37.9936 17.168 37.4416 16.544 37.0416 15.744C36.6576 14.928 36.4656 14 36.4656 12.96C36.4656 11.84 36.7056 10.816 37.1856 9.888C37.6816 8.944 38.3536 8.208 39.2016 7.68C40.0496 7.136 40.9936 6.864 42.0336 6.864C42.9296 6.864 43.7296 7.088 44.4336 7.536C45.1536 7.984 45.7056 8.616 46.0896 9.432C46.4896 10.232 46.6896 11.152 46.6896 12.192C46.6896 13.312 46.4416 14.344 45.9456 15.288C45.4656 16.216 44.8016 16.952 43.9536 17.496C43.1056 18.024 42.1616 18.288 41.1216 18.288ZM41.7936 17.112C42.6896 17.112 43.4016 16.752 43.9296 16.032C44.4576 15.296 44.7216 14.304 44.7216 13.056C44.7216 12.112 44.5776 11.272 44.2896 10.536C44.0016 9.784 43.5936 9.2 43.0656 8.784C42.5536 8.368 41.9696 8.16 41.3136 8.16C40.4176 8.16 39.7056 8.528 39.1776 9.264C38.6496 10 38.3856 11 38.3856 12.264C38.3856 13.208 38.5296 14.048 38.8176 14.784C39.1056 15.52 39.5056 16.096 40.0176 16.512C40.5296 16.912 41.1216 17.112 41.7936 17.112ZM48.0437 23.784C47.9157 23.784 47.7077 23.592 47.4197 23.208C47.1317 22.84 46.9877 22.576 46.9877 22.416L47.1077 22.248C48.0037 22.248 48.8357 21.872 49.6037 21.12C50.3877 20.384 51.0597 19.344 51.6197 18C50.3877 14.096 49.3957 11.152 48.6437 9.168C48.4997 8.768 48.2917 8.48 48.0197 8.304C47.7637 8.128 47.4277 8.032 47.0117 8.016L46.9637 7.92L47.1077 7.128L49.0997 7.152C49.6917 7.152 50.2757 7.128 50.8517 7.08C51.4437 7.032 51.8197 7 51.9797 6.984L52.0277 7.104L51.8837 7.848C51.3397 7.864 50.9717 7.92 50.7797 8.016C50.6037 8.096 50.5157 8.248 50.5157 8.472C50.5157 8.728 50.6677 9.392 50.9717 10.464C51.2917 11.536 51.6197 12.608 51.9557 13.68C52.2917 14.736 52.5157 15.424 52.6277 15.744H52.7237C54.5637 11.344 55.4837 8.952 55.4837 8.568C55.4837 8.152 55.1797 7.944 54.5717 7.944H53.4677L53.4197 7.848L53.5637 7.056C53.7077 7.072 54.0277 7.096 54.5237 7.128C55.0197 7.144 55.5157 7.152 56.0117 7.152L58.0517 7.128L57.8837 8.016C57.5317 8.08 57.2597 8.208 57.0677 8.4C56.8917 8.576 56.7157 8.904 56.5397 9.384L53.4917 16.68C52.6597 18.696 51.9797 20.192 51.4517 21.168C50.9237 22.144 50.4037 22.824 49.8917 23.208C49.3797 23.608 48.7637 23.8 48.0437 23.784ZM112.611 17.304C113.059 17.176 113.371 17.016 113.547 16.824C113.739 16.632 113.851 16.4 113.883 16.128C113.931 15.856 113.955 15.4 113.955 14.76V2.976C113.955 2.48 113.899 2.144 113.787 1.968C113.675 1.792 113.443 1.704 113.091 1.704C113.011 1.704 112.827 1.72 112.539 1.752L112.467 1.704L112.563 0.887999C113.907 0.695999 115.091 0.463999 116.115 0.191999L116.259 0.503999C116.083 0.776 115.923 2.488 115.779 5.64C115.651 8.792 115.587 12.128 115.587 15.648C115.587 16.128 115.651 16.472 115.779 16.68C115.907 16.888 116.123 16.992 116.427 16.992L117.267 16.944L117.315 17.04L117.123 18.072C116.067 18.024 115.355 18 114.987 18C114.443 18 113.619 18.096 112.515 18.288L112.611 17.304ZM118.879 17.304C119.359 17.176 119.703 16.992 119.911 16.752C120.119 16.496 120.223 16.16 120.223 15.744V9.648C120.223 8.784 119.927 8.352 119.335 8.352C119.223 8.352 119.103 8.368 118.975 8.4C118.847 8.416 118.767 8.432 118.735 8.448L118.831 7.56C119.503 7.464 120.191 7.336 120.895 7.176C121.615 7.016 122.079 6.912 122.287 6.864L122.407 7.152C122.263 7.488 122.135 8.52 122.023 10.248C121.911 11.96 121.855 13.76 121.855 15.648C121.855 16.112 121.919 16.456 122.047 16.68C122.175 16.888 122.391 16.992 122.695 16.992C122.871 16.992 123.039 16.984 123.199 16.968C123.359 16.952 123.471 16.944 123.535 16.944L123.583 17.04L123.391 18.072C123.247 18.056 122.975 18.04 122.575 18.024C122.175 18.008 121.735 18 121.255 18C120.839 18 120.359 18.04 119.815 18.12C119.287 18.2 118.943 18.256 118.783 18.288L118.879 17.304ZM120.895 4.032C120.527 4.032 120.239 3.912 120.031 3.672C119.823 3.432 119.719 3.144 119.719 2.808C119.719 2.424 119.855 2.096 120.127 1.824C120.399 1.536 120.735 1.392 121.135 1.392C121.503 1.392 121.791 1.512 121.999 1.752C122.207 1.992 122.311 2.28 122.311 2.616C122.311 3 122.175 3.336 121.903 3.624C121.631 3.896 121.295 4.032 120.895 4.032ZM125.724 17.16C126.636 17.032 127.092 16.56 127.092 15.744V9.264C127.076 8.88 126.964 8.632 126.756 8.52C126.564 8.392 126.172 8.312 125.58 8.28L125.484 8.136L125.652 7.32L127.092 7.056V6.96C127.092 5.584 127.316 4.384 127.764 3.36C128.228 2.336 128.868 1.552 129.684 1.008C130.516 0.463999 131.492 0.191999 132.612 0.191999C133.092 0.191999 133.532 0.223999 133.932 0.287999C134.348 0.351999 134.668 0.423999 134.892 0.503999C135.132 0.567999 135.284 0.615999 135.348 0.647999L135.396 0.863999C135.348 0.943999 135.244 1.136 135.084 1.44C134.94 1.728 134.796 2.056 134.652 2.424L134.388 2.496C134.324 2.448 134.164 2.352 133.908 2.208C133.668 2.064 133.34 1.928 132.924 1.8C132.524 1.672 132.092 1.608 131.628 1.608C130.716 1.608 130.036 1.976 129.588 2.712C129.14 3.432 128.9 4.544 128.868 6.048L128.844 7.224C129.676 7.224 130.388 7.216 130.98 7.2C131.572 7.184 131.964 7.168 132.156 7.152L132.228 7.224L131.988 8.496C131.812 8.48 131.436 8.464 130.86 8.448C130.3 8.432 129.62 8.424 128.82 8.424L128.724 15.648C128.724 16.096 128.82 16.432 129.012 16.656C129.22 16.864 129.532 16.968 129.948 16.968C130.332 16.968 130.644 16.96 130.884 16.944C131.14 16.928 131.308 16.92 131.388 16.92L131.436 17.016L131.268 18.048C131.044 18.048 130.636 18.04 130.044 18.024C129.452 18.008 128.868 18 128.292 18C127.732 18 127.18 18.008 126.636 18.024C126.108 18.056 125.764 18.08 125.604 18.096L125.724 17.16ZM137.904 18.288C136.912 18.288 136.032 18.072 135.264 17.64C134.496 17.192 133.904 16.568 133.488 15.768C133.072 14.952 132.864 14.024 132.864 12.984C132.864 11.912 133.104 10.904 133.584 9.96C134.08 9.016 134.736 8.264 135.552 7.704C136.368 7.144 137.24 6.864 138.168 6.864C139.336 6.864 140.224 7.16 140.832 7.752C141.44 8.344 141.744 9.208 141.744 10.344C141.744 10.808 141.696 11.2 141.6 11.52L141.288 11.808H134.664C134.648 13.36 134.952 14.56 135.576 15.408C136.216 16.24 137.104 16.656 138.24 16.656C139.136 16.656 140.112 16.408 141.168 15.912L141.312 15.96L141.576 16.656C141 17.072 140.36 17.448 139.656 17.784C138.968 18.12 138.384 18.288 137.904 18.288ZM139.104 10.704C139.344 10.672 139.504 10.616 139.584 10.536C139.664 10.456 139.704 10.296 139.704 10.056C139.704 9.416 139.528 8.928 139.176 8.592C138.84 8.256 138.352 8.088 137.712 8.088C136.96 8.088 136.312 8.344 135.768 8.856C135.24 9.368 134.904 10.056 134.76 10.92L139.104 10.704ZM145.607 18.288C145.175 18.288 144.839 18.16 144.599 17.904C144.375 17.632 144.263 17.304 144.263 16.92C144.263 16.504 144.399 16.152 144.671 15.864C144.943 15.576 145.303 15.432 145.751 15.432C146.183 15.432 146.519 15.568 146.759 15.84C146.999 16.096 147.119 16.416 147.119 16.8C147.119 17.216 146.975 17.568 146.687 17.856C146.415 18.144 146.055 18.288 145.607 18.288ZM159.657 18.408C159.433 17.608 158.913 15.848 158.097 13.128C157.297 10.408 156.481 7.744 155.649 5.136C155.505 4.672 155.257 4.336 154.905 4.128C154.553 3.904 154.081 3.784 153.489 3.768L153.465 3.672L153.609 2.64C153.817 2.64 154.193 2.656 154.737 2.688C155.281 2.704 155.809 2.712 156.321 2.712C157.025 2.712 157.729 2.68 158.433 2.616C159.137 2.536 159.593 2.48 159.801 2.448L159.873 2.616L159.777 3.552C158.961 3.616 158.409 3.712 158.121 3.84C157.849 3.968 157.713 4.2 157.713 4.536C157.713 4.808 157.929 5.776 158.361 7.44C158.809 9.088 159.265 10.744 159.729 12.408C160.209 14.072 160.521 15.16 160.665 15.672H160.809L164.193 6.456L163.761 5.136C163.601 4.672 163.353 4.336 163.017 4.128C162.681 3.92 162.209 3.8 161.601 3.768L161.553 3.672L161.721 2.64C161.929 2.64 162.305 2.656 162.849 2.688C163.393 2.704 163.921 2.712 164.433 2.712C165.041 2.712 165.713 2.68 166.449 2.616C167.201 2.536 167.689 2.48 167.913 2.448L167.985 2.616L167.889 3.552C167.057 3.616 166.497 3.712 166.209 3.84C165.937 3.968 165.801 4.208 165.801 4.56C165.801 4.896 166.217 6.56 167.049 9.552C167.881 12.544 168.457 14.584 168.777 15.672H168.921C168.953 15.576 168.985 15.48 169.017 15.384C169.065 15.272 169.113 15.144 169.161 15C171.593 8.472 172.809 4.976 172.809 4.512C172.809 4.208 172.681 3.992 172.425 3.864C172.169 3.736 171.753 3.672 171.177 3.672H169.977L169.929 3.576L170.097 2.544C170.305 2.56 170.753 2.592 171.441 2.64C172.129 2.688 172.793 2.712 173.433 2.712C174.009 2.712 174.537 2.704 175.017 2.688C175.497 2.672 175.817 2.656 175.977 2.64L175.809 3.768C175.329 3.8 174.993 3.888 174.801 4.032C174.609 4.16 174.433 4.456 174.273 4.92L169.233 17.88L167.745 18.408C167.585 17.848 167.209 16.56 166.617 14.544C166.041 12.528 165.417 10.424 164.745 8.232H164.601L161.193 17.88L159.657 18.408ZM176.183 17.304C176.663 17.176 177.007 16.992 177.215 16.752C177.423 16.496 177.527 16.16 177.527 15.744V9.648C177.527 8.784 177.231 8.352 176.639 8.352C176.527 8.352 176.407 8.368 176.279 8.4C176.151 8.416 176.071 8.432 176.039 8.448L176.135 7.56C176.807 7.464 177.495 7.336 178.199 7.176C178.919 7.016 179.383 6.912 179.591 6.864L179.711 7.152C179.567 7.488 179.439 8.52 179.327 10.248C179.215 11.96 179.159 13.76 179.159 15.648C179.159 16.112 179.223 16.456 179.351 16.68C179.479 16.888 179.695 16.992 179.999 16.992C180.175 16.992 180.343 16.984 180.503 16.968C180.663 16.952 180.775 16.944 180.839 16.944L180.887 17.04L180.695 18.072C180.551 18.056 180.279 18.04 179.879 18.024C179.479 18.008 179.039 18 178.559 18C178.143 18 177.663 18.04 177.119 18.12C176.591 18.2 176.247 18.256 176.087 18.288L176.183 17.304ZM178.199 4.032C177.831 4.032 177.543 3.912 177.335 3.672C177.127 3.432 177.023 3.144 177.023 2.808C177.023 2.424 177.159 2.096 177.431 1.824C177.703 1.536 178.039 1.392 178.439 1.392C178.807 1.392 179.095 1.512 179.303 1.752C179.511 1.992 179.615 2.28 179.615 2.616C179.615 3 179.479 3.336 179.207 3.624C178.935 3.896 178.599 4.032 178.199 4.032ZM186.749 18.288C185.661 18.288 184.893 18.072 184.445 17.64C183.997 17.192 183.773 16.44 183.773 15.384V9.48C183.773 9.048 183.677 8.744 183.485 8.568C183.293 8.392 182.933 8.296 182.405 8.28L182.309 8.136L182.429 7.416C182.893 7.192 183.341 6.92 183.773 6.6C184.221 6.264 184.581 5.976 184.853 5.736C185.141 5.48 185.325 5.312 185.405 5.232L185.885 5.424C185.869 5.504 185.845 5.696 185.813 6C185.781 6.304 185.741 6.712 185.693 7.224L189.221 7.152L189.293 7.224L189.077 8.496L185.597 8.424C185.485 10.184 185.429 12.184 185.429 14.424C185.429 15.24 185.565 15.816 185.837 16.152C186.125 16.488 186.613 16.656 187.301 16.656C187.541 16.656 187.781 16.624 188.021 16.56C188.261 16.496 188.461 16.432 188.621 16.368C188.781 16.288 188.885 16.24 188.933 16.224L189.173 16.848C189.077 16.928 188.869 17.08 188.549 17.304C188.245 17.528 187.909 17.752 187.541 17.976C187.189 18.184 186.925 18.288 186.749 18.288ZM190.567 17.064C191.031 17.016 191.351 16.896 191.527 16.704C191.719 16.512 191.815 16.192 191.815 15.744V2.976C191.815 2.544 191.743 2.232 191.599 2.04C191.455 1.832 191.231 1.728 190.927 1.728H190.423L190.327 1.656L190.423 0.887999C190.967 0.823999 191.583 0.728 192.271 0.599999C192.959 0.455999 193.527 0.319999 193.975 0.191999L194.119 0.503999C194.007 0.679999 193.895 1.536 193.783 3.072C193.687 4.608 193.607 6.496 193.543 8.736C195.367 7.488 196.567 6.864 197.143 6.864C198.183 6.864 198.991 7.136 199.567 7.68C200.143 8.224 200.431 8.984 200.431 9.96C200.431 10.28 200.375 11.016 200.263 12.168C200.119 14.04 200.047 15.2 200.047 15.648C200.047 16.112 200.111 16.456 200.239 16.68C200.367 16.888 200.583 16.992 200.887 16.992L201.727 16.944L201.775 17.04L201.583 18.072C200.527 18.024 199.815 18 199.447 18C198.807 18 197.983 18.096 196.975 18.288L197.071 17.304C197.551 17.176 197.895 16.992 198.103 16.752C198.311 16.496 198.415 16.16 198.415 15.744L198.559 10.992C198.559 10.192 198.383 9.576 198.031 9.144C197.695 8.712 197.207 8.496 196.567 8.496C196.167 8.496 195.671 8.624 195.079 8.88C194.503 9.136 193.983 9.448 193.519 9.816C193.471 11.608 193.447 13.552 193.447 15.648C193.447 16.144 193.511 16.496 193.639 16.704C193.767 16.896 193.991 16.992 194.311 16.992L195.151 16.944L195.199 17.04L194.983 18.072C193.879 18.024 193.151 18 192.799 18C192.111 18 191.319 18.016 190.423 18.048L190.567 17.064ZM233.521 18.288C233.089 18.288 232.753 18.16 232.513 17.904C232.289 17.632 232.177 17.304 232.177 16.92C232.177 16.504 232.313 16.152 232.585 15.864C232.857 15.576 233.217 15.432 233.665 15.432C234.097 15.432 234.433 15.568 234.673 15.84C234.913 16.096 235.033 16.416 235.033 16.8C235.033 17.216 234.889 17.568 234.601 17.856C234.329 18.144 233.969 18.288 233.521 18.288Z" fill="black"/>
<path d="M63.5124 23.784C63.3844 23.784 63.1764 23.592 62.8884 23.208C62.6004 22.84 62.4564 22.576 62.4564 22.416L62.5764 22.248C63.4724 22.248 64.3044 21.872 65.0724 21.12C65.8564 20.384 66.5284 19.344 67.0884 18C65.8564 14.096 64.8644 11.152 64.1124 9.168C63.9684 8.768 63.7604 8.48 63.4884 8.304C63.2324 8.128 62.8964 8.032 62.4804 8.016L62.4324 7.92L62.5764 7.128L64.5684 7.152C65.1604 7.152 65.7444 7.128 66.3204 7.08C66.9124 7.032 67.2884 7 67.4484 6.984L67.4964 7.104L67.3524 7.848C66.8084 7.864 66.4404 7.92 66.2484 8.016C66.0724 8.096 65.9844 8.248 65.9844 8.472C65.9844 8.728 66.1364 9.392 66.4404 10.464C66.7604 11.536 67.0884 12.608 67.4244 13.68C67.7604 14.736 67.9844 15.424 68.0964 15.744H68.1924C70.0324 11.344 70.9524 8.952 70.9524 8.568C70.9524 8.152 70.6484 7.944 70.0404 7.944H68.9364L68.8884 7.848L69.0324 7.056C69.1764 7.072 69.4964 7.096 69.9924 7.128C70.4884 7.144 70.9844 7.152 71.4804 7.152L73.5204 7.128L73.3524 8.016C73.0004 8.08 72.7284 8.208 72.5364 8.4C72.3604 8.576 72.1844 8.904 72.0084 9.384L68.9604 16.68C68.1284 18.696 67.4484 20.192 66.9204 21.168C66.3924 22.144 65.8724 22.824 65.3604 23.208C64.8484 23.608 64.2324 23.8 63.5124 23.784ZM78.5044 18.288C77.5924 18.288 76.7844 18.064 76.0804 17.616C75.3764 17.168 74.8244 16.544 74.4244 15.744C74.0404 14.928 73.8484 14 73.8484 12.96C73.8484 11.84 74.0884 10.816 74.5684 9.888C75.0644 8.944 75.7364 8.208 76.5844 7.68C77.4324 7.136 78.3764 6.864 79.4164 6.864C80.3124 6.864 81.1124 7.088 81.8164 7.536C82.5364 7.984 83.0884 8.616 83.4724 9.432C83.8724 10.232 84.0724 11.152 84.0724 12.192C84.0724 13.312 83.8244 14.344 83.3284 15.288C82.8484 16.216 82.1844 16.952 81.3364 17.496C80.4884 18.024 79.5444 18.288 78.5044 18.288ZM79.1764 17.112C80.0724 17.112 80.7844 16.752 81.3124 16.032C81.8404 15.296 82.1044 14.304 82.1044 13.056C82.1044 12.112 81.9604 11.272 81.6724 10.536C81.3844 9.784 80.9764 9.2 80.4484 8.784C79.9364 8.368 79.3524 8.16 78.6964 8.16C77.8004 8.16 77.0884 8.528 76.5604 9.264C76.0324 10 75.7684 11 75.7684 12.264C75.7684 13.208 75.9124 14.048 76.2004 14.784C76.4884 15.52 76.8884 16.096 77.4004 16.512C77.9124 16.912 78.5044 17.112 79.1764 17.112ZM87.0975 9.672C87.0975 8.808 86.8015 8.376 86.2095 8.376C86.0975 8.376 85.9775 8.392 85.8495 8.424C85.7215 8.44 85.6415 8.456 85.6095 8.472L85.7055 7.584C86.3295 7.488 87.0015 7.36 87.7215 7.2C88.4415 7.024 88.9135 6.912 89.1375 6.864L89.2815 7.152C89.1215 7.568 88.9775 8.512 88.8495 9.984C88.7215 11.456 88.6575 12.888 88.6575 14.28C88.6575 15.848 89.2975 16.632 90.5775 16.632C91.0575 16.632 91.5055 16.52 91.9215 16.296C92.3375 16.056 92.8575 15.712 93.4815 15.264V9.696C93.4815 9.216 93.3935 8.88 93.2175 8.688C93.0415 8.496 92.7295 8.4 92.2815 8.4L91.7055 8.424L91.8015 7.56C92.5055 7.464 93.2415 7.336 94.0095 7.176C94.7775 7.016 95.2735 6.912 95.4975 6.864L95.6415 7.152C95.4975 7.52 95.3695 8.52 95.2575 10.152C95.1615 11.784 95.1135 13.56 95.1135 15.48C95.1135 15.832 95.2015 16.104 95.3775 16.296C95.5535 16.488 95.7935 16.584 96.0975 16.584C96.3215 16.584 96.5375 16.544 96.7455 16.464C96.9695 16.368 97.1455 16.272 97.2735 16.176C97.4175 16.08 97.5055 16.016 97.5375 15.984L97.8735 16.368C97.8095 16.464 97.6575 16.664 97.4175 16.968C97.1935 17.272 96.9215 17.568 96.6015 17.856C96.2975 18.144 96.0255 18.288 95.7855 18.288C94.4895 18.288 93.7775 17.64 93.6495 16.344L93.5295 16.296C92.7615 16.888 92.0655 17.368 91.4415 17.736C90.8335 18.104 90.4175 18.288 90.1935 18.288C89.1695 18.288 88.3775 18.048 87.8175 17.568C87.2735 17.088 87.0015 16.4 87.0015 15.504L87.0975 9.672ZM99.3379 17.136C99.8179 17.088 100.138 16.936 100.298 16.68C100.458 16.408 100.538 15.896 100.538 15.144V9.864C100.538 9.336 100.466 8.96 100.322 8.736C100.178 8.512 99.9459 8.4 99.6259 8.4C99.4979 8.4 99.3859 8.408 99.2899 8.424C99.2099 8.44 99.1539 8.456 99.1219 8.472L99.0019 8.304L99.0739 7.56C99.6819 7.448 100.322 7.312 100.994 7.152C101.682 6.992 102.122 6.888 102.314 6.84L102.482 6.984C102.45 7.128 102.402 7.464 102.338 7.992C102.274 8.504 102.25 8.992 102.266 9.456L102.362 9.528C102.842 8.776 103.402 8.16 104.042 7.68C104.698 7.2 105.266 6.96 105.746 6.96C105.97 6.96 106.138 6.976 106.25 7.008C106.378 7.024 106.458 7.04 106.49 7.056L106.562 7.152C106.53 7.376 106.458 7.856 106.346 8.592C106.25 9.312 106.194 9.976 106.178 10.584L105.242 10.656C105.242 10 105.194 9.568 105.098 9.36C105.018 9.136 104.85 9.024 104.594 9.024C104.242 9.024 103.866 9.176 103.466 9.48C103.066 9.768 102.698 10.16 102.362 10.656C102.346 11.12 102.314 11.888 102.266 12.96C102.218 14.032 102.186 14.896 102.17 15.552C102.17 16.096 102.25 16.464 102.41 16.656C102.57 16.848 102.874 16.944 103.322 16.944C103.53 16.944 103.738 16.936 103.946 16.92C104.154 16.904 104.298 16.896 104.378 16.896L104.402 16.992L104.186 18.048C104.026 18.048 103.706 18.04 103.226 18.024C102.746 18.008 102.25 18 101.738 18C101.146 18 100.61 18.008 100.13 18.024C99.6499 18.056 99.3459 18.08 99.2179 18.096L99.3379 17.136Z" fill="#254BD0"/>
<path d="M209.465 9.672C209.465 8.808 209.169 8.376 208.577 8.376C208.465 8.376 208.345 8.392 208.217 8.424C208.089 8.44 208.009 8.456 207.977 8.472L208.073 7.584C208.697 7.488 209.369 7.36 210.089 7.2C210.809 7.024 211.281 6.912 211.505 6.864L211.649 7.152C211.489 7.568 211.345 8.512 211.217 9.984C211.089 11.456 211.025 12.888 211.025 14.28C211.025 15.848 211.665 16.632 212.945 16.632C213.425 16.632 213.873 16.52 214.289 16.296C214.705 16.056 215.225 15.712 215.849 15.264V9.696C215.849 9.216 215.761 8.88 215.585 8.688C215.409 8.496 215.097 8.4 214.649 8.4L214.073 8.424L214.169 7.56C214.873 7.464 215.609 7.336 216.377 7.176C217.145 7.016 217.641 6.912 217.865 6.864L218.009 7.152C217.865 7.52 217.737 8.52 217.625 10.152C217.529 11.784 217.481 13.56 217.481 15.48C217.481 15.832 217.569 16.104 217.745 16.296C217.921 16.488 218.161 16.584 218.465 16.584C218.689 16.584 218.905 16.544 219.113 16.464C219.337 16.368 219.513 16.272 219.641 16.176C219.785 16.08 219.873 16.016 219.905 15.984L220.241 16.368C220.177 16.464 220.025 16.664 219.785 16.968C219.561 17.272 219.289 17.568 218.969 17.856C218.665 18.144 218.393 18.288 218.153 18.288C216.857 18.288 216.145 17.64 216.017 16.344L215.897 16.296C215.129 16.888 214.433 17.368 213.809 17.736C213.201 18.104 212.785 18.288 212.561 18.288C211.537 18.288 210.745 18.048 210.185 17.568C209.641 17.088 209.369 16.4 209.369 15.504L209.465 9.672ZM224.393 18.288C223.881 18.288 223.409 18.248 222.977 18.168C222.561 18.104 222.233 18.032 221.993 17.952C221.753 17.872 221.601 17.816 221.537 17.784L221.465 17.616C221.513 17.376 221.569 16.88 221.633 16.128C221.697 15.376 221.737 14.8 221.753 14.4L222.593 14.28C222.593 15.336 222.769 16.08 223.121 16.512C223.473 16.944 224.073 17.16 224.921 17.16C225.529 17.16 226.041 17.024 226.457 16.752C226.873 16.48 227.081 16.144 227.081 15.744C227.081 15.344 226.889 14.984 226.505 14.664C226.137 14.328 225.401 13.864 224.297 13.272C223.385 12.808 222.721 12.336 222.305 11.856C221.889 11.376 221.681 10.848 221.681 10.272C221.681 9.632 221.873 9.056 222.257 8.544C222.641 8.016 223.169 7.608 223.841 7.32C224.513 7.016 225.265 6.864 226.097 6.864C226.481 6.864 226.849 6.896 227.201 6.96C227.553 7.008 227.841 7.064 228.065 7.128C228.289 7.192 228.433 7.232 228.497 7.248L228.545 7.368C228.513 7.528 228.441 7.896 228.329 8.472C228.217 9.032 228.137 9.64 228.089 10.296L227.201 10.368C227.201 10.32 227.209 10.224 227.225 10.08C227.241 9.936 227.249 9.8 227.249 9.672C227.249 9.096 227.089 8.68 226.769 8.424C226.465 8.152 225.969 8.016 225.281 8.016C224.737 8.016 224.273 8.144 223.889 8.4C223.521 8.656 223.337 8.968 223.337 9.336C223.337 9.72 223.497 10.08 223.817 10.416C224.153 10.752 224.689 11.112 225.425 11.496C226.721 12.184 227.601 12.768 228.065 13.248C228.545 13.712 228.785 14.248 228.785 14.856C228.785 15.464 228.585 16.032 228.185 16.56C227.785 17.088 227.241 17.512 226.553 17.832C225.881 18.136 225.161 18.288 224.393 18.288Z" fill="#DC8C2F"/>
</g>
<defs>
<filter id="filter0_d" x="0.391998" y="0.192001" width="238.641" height="31.5929" filterUnits="userSpaceOnUse" color-interpolation-filters="sRGB">
<feFlood flood-opacity="0" result="BackgroundImageFix"/>
<feColorMatrix in="SourceAlpha" type="matrix" values="0 0 0 0 0 0 0 0 0 0 0 0 0 0 0 0 0 0 127 0"/>
<feOffset dy="4"/>
<feGaussianBlur stdDeviation="2"/>
<feColorMatrix type="matrix" values="0 0 0 0 0 0 0 0 0 0 0 0 0 0 0 0 0 0 0.25 0"/>
<feBlend mode="normal" in2="BackgroundImageFix" result="effect1_dropShadow"/>
<feBlend mode="normal" in="SourceGraphic" in2="effect1_dropShadow" result="shape"/>
</filter>
</defs>
</svg>
