<?xml version="1.0" encoding="UTF-8" standalone="no"?>
<svg
   xmlns:dc="http://purl.org/dc/elements/1.1/"
   xmlns:cc="http://creativecommons.org/ns#"
   xmlns:rdf="http://www.w3.org/1999/02/22-rdf-syntax-ns#"
   xmlns:svg="http://www.w3.org/2000/svg"
   xmlns="http://www.w3.org/2000/svg"
   id="svg33"
   version="1.1"
   height="1024"
   width="1024">
  <metadata
     id="metadata39">
    <rdf:RDF>
      <cc:Work
         rdf:about="">
        <dc:format>image/svg+xml</dc:format>
        <dc:type
           rdf:resource="http://purl.org/dc/dcmitype/StillImage" />
      </cc:Work>
    </rdf:RDF>
  </metadata>
  <defs
     id="defs37" />
  <style
     id="style2"><![CDATA[  #title path, #title polygon{ fill: #e98f39 !important; } #tagline path, #tagline polygon{ fill: #e98f39 !important; }  #icon *{ fill: #0f758e !important; } ]]></style>
  <g
     id="g7">
    <title
       id="title4">background</title>
    <rect
       x="-1"
       y="-1"
       width="582"
       height="402"
       id="canvas_background"
       fill="none" />
  </g>
  <g
     id="g31">
    <title
       id="title9">Layer 1</title>
    <circle
       id="circle2"
       cy="512"
       cx="513"
       r="420"
       fill="#fff" />
    <g
       id="logo-group"
       stroke="null">
      <g
         id="icon"
         stroke="null">
        <metadata
           id="metadata9"
           transform="translate(0,23.000015258789062) translate(-36,0) translate(0,81.89299011230469) translate(-32.99998474121094,0) translate(-40.99992370605469,0) translate(192.67074584960938,0) translate(-192.67071533203125,0) translate(2.999969482421875,0) translate(-45,23) translate(234.67074584960938,651.1528930664062) scale(1.1514445543289185,1.2247651815414429) translate(-234.67074584960938,-651.1528930664062) translate(390.427001953125,376.21722412109375) scale(1.6565793752670288,1.596542239189148) translate(-390.427001953125,-376.21722412109375) translate(214.18812561035156,235.64498901367188) scale(1.319010615348816,1.1526161432266235) translate(-214.18812561035156,-235.64498901367188) translate(107.65959167480469,310.73931884765625) scale(1.1492953300476074,1.1221140623092651) translate(-107.65959167480469,-310.73931884765625) "
           stroke="null" />
        <path
           id="path11"
           d="m476.448532586988,392.923763976957c-2.641545081741,-2.529313820645 -6.403259341525,-4.010127405984 -10.320641810864,-4.063464767352c-7.876490438146,-0.088427730689 -14.392087662856,5.403916875408 -14.526893122677,12.287243721382c-0.043330326371,2.220518570622 1.978751570952,4.048025004851 4.515982904023,4.085922603717l0.078636518229,0c2.501925141212,0 4.549684268978,-1.753114851269 4.593014595349,-3.949771970753c0.046539980177,-2.459133082004 2.357490719975,-4.431211837834 5.194824683839,-4.387699779876c1.418666981932,0.01965060682 2.724996080679,0.533373613677 3.681472914651,1.448530445564c1.710745478212,1.638018439896 4.617086998889,1.754518466041 6.49152482117,0.256861503428c1.871228168476,-1.497656962613 2.004428801395,-4.041006930986 0.29207849628,-5.67762175611z"
           stroke="null" />
        <path
           id="path17"
           d="m500.891651141064,406.018086192718c-1.407433193613,-2.895657276355 -4.150082370221,-5.180742126527 -7.523428519566,-6.268543575473c-6.785208144353,-2.18963904562 -14.345547682679,0.85199416711 -16.85870661221,6.779459352784c-0.882654796451,2.080157093339 0.330594341943,4.393314238968 2.708947811652,5.165302364026c0.527988050968,0.171241002286 1.067209890254,0.25265065911 1.596802768125,0.25265065911c1.86801851467,0 3.620489492351,-1.002180947803 4.308960233583,-2.62054878088c0.755873471142,-1.782590761498 3.028308365277,-2.692133134294 5.063228877822,-2.035241420608c1.02227473698,0.329849471616 1.821478534494,0.995162873939 2.248362490595,1.873825721732c0.991783025831,2.0408558797 3.689497049164,2.995313925226 6.0229153656,2.126476380842c2.338232797143,-0.870241159157 3.424700610229,-3.229717592289 2.432917584399,-5.273380701534z"
           stroke="null" />
        <g
           id="g25"
           stroke="null">
          <path
             id="path23"
             d="m530.502312321634,370.432240857079c-1.797406130954,-1.569241316028 -4.705352478534,-1.565030471709 -6.497944128781,0.004210844318l-4.329822983317,3.795374345741c-1.794196477149,1.572048545573 -1.790986823344,4.115398513947 0.006419307611,5.684639829974c0.895493411672,0.781813428468 2.070226704402,1.173421950088 3.243355170231,1.173421950088c1.179547773439,0 2.355885893072,-0.393012136393 3.252984131647,-1.180440023953l4.329822983317,-3.795374345741c1.792591650246,-1.569241316028 1.789381996441,-4.115398513947 -0.004814480708,-5.681832600429z"
             stroke="null" />
        </g>
        <path
           id="path29"
           d="m501.920345185655,422.305632016674l-6.125624287369,0c-2.535626506168,0 -4.594619422252,1.798030523999 -4.594619422252,4.017145479849c0,2.220518570622 2.058992916084,4.017145479848 4.594619422252,4.017145479848l6.125624287369,0c2.535626506167,0 4.594619422252,-1.796626909226 4.594619422252,-4.017145479848c0,-2.219114955849 -2.058992916085,-4.017145479849 -4.594619422252,-4.017145479849z"
           stroke="null" />
        <path
           id="path35"
           d="m548.86795139542,422.305632016674l-6.122414633563,0c-2.538836159973,0 -4.594619422252,1.798030523999 -4.594619422252,4.017145479849c0,2.220518570622 2.058992916084,4.017145479848 4.594619422252,4.017145479848l6.122414633563,0c2.538836159973,0 4.593014595349,-1.796626909226 4.593014595349,-4.017145479848c0,-2.219114955849 -2.054178435376,-4.017145479849 -4.593014595349,-4.017145479849z"
           stroke="null" />
        <path
           id="path41"
           d="m668.66827967733,494.757419360776l-1.197200869368,-5.646742231108c-0.763897605656,-3.610097195727 -4.365129175175,-6.229242361834 -8.568170833183,-6.229242361834c-0.524778397162,0 -1.059185755741,0.040704828412 -1.580754499098,0.126325329555l-24.358062728236,3.913277986659l11.02997530183,-6.449609881169c2.891898078553,-1.689952186491 4.352290559953,-4.713338407174 3.721593587217,-7.710055947172c-0.174926132387,-0.82251825688 -0.502310820525,-1.60994614444 -0.977339583706,-2.34824751495l-3.338039957487,-5.169513208344c-1.142636754678,-1.776976302407 -3.094106268285,-3.09637418887 -5.344073585784,-3.618518884364c-1.104120909015,-0.258265118201 -2.253176971303,-0.315813323887 -3.381370283858,-0.18808437956c1.227692580518,-5.928868800447 1.863204033963,-11.982659315677 1.863204033963,-18.14733539796c0,-2.734241577479 -1.880857129892,-5.089507166293 -4.56894219181,-6.132392942508c3.511361262971,-7.301604048278 3.748875644562,-15.661533635273 0.282449534865,-23.315444991532c-0.282449534865,-0.623204959138 -0.702914183355,-1.17903640918 -1.238926368837,-1.652054587624c-0.536012185481,-0.470210948899 -1.165104331315,-0.83234356029 -1.877647476086,-1.082186989854c-4.156501677832,-1.448530445564 -8.526445333715,-2.182620971756 -12.986259296145,-2.182620971756c-0.569713550436,0 -1.141031927775,0.012632532956 -1.705930997504,0.035090369321c-0.633906626542,-11.213478420164 -11.246626933686,-20.165733441294 -24.202394518681,-20.165733441294c-1.705930997504,0 -3.373346149344,0.157204854557 -4.978173051982,0.454771186398c1.115354697333,-5.840441069759 0.460585321057,-11.950376175902 -2.140839088119,-17.685546137698c-0.282449534864,-0.630223033002 -0.701309356453,-1.197283401227 -1.269418079987,-1.702584719446c-0.548850800702,-0.480036252309 -1.19238638866,-0.850590552337 -1.906534360334,-1.099030367128c-4.480676712165,-1.56081962739 -9.187634017601,-2.349651129723 -13.992485764098,-2.349651129723c-7.237769330897,0 -14.160992588876,1.779783531953 -20.140577628104,5.08810355152c-2.182564587587,-5.531645819735 -5.783796157106,-10.727827708764 -10.813323669973,-15.137985325006c-1.474835923524,-1.292729205779 -3.434329571645,-2.002958280833 -5.518999718171,-2.002958280833s-4.04576862155,0.710229075054 -5.522209371977,2.004361895606l-22.246110524365,19.500420038971c-4.116381005266,-3.211470600242 -9.531066974766,-5.131615609478 -15.41115274603,-5.131615609478c-1.335215982995,0 -2.681665754308,0.101060263644 -4.004043122081,0.303180790932c-4.792013131276,0.731283296646 -9.202077459725,2.780560864982 -12.583447743583,5.787103708391c-4.334637464025,-1.830313663774 -9.299971900786,-2.453518622912 -14.071122282328,-1.726446170585c-1.051161621228,0.15860846933 -2.071831531305,0.383186832983 -3.058800076428,0.658295328459l0,-15.027099757952c0,-10.348851720099 -9.508599398129,-18.780365660508 -21.270375767561,-18.96002835143l0,-8.52134528587c3.601231569519,-0.544602531859 6.350300053738,-3.290073027521 6.350300053738,-6.591374973224l0,-19.308124815093c0,-3.692910467324 -3.43753922545,-6.695242466414 -7.656629152485,-6.695242466414l-37.363579947213,0c-4.22229958084,0 -7.656629152485,3.00233199909 -7.656629152485,6.695242466414l0,19.308124815093c0,3.302705560476 2.749068484218,6.048176056138 6.350300053738,6.591374973224l0,8.52134528587c-11.764986023238,0.17825907615 -21.270375767561,8.611176631331 -21.270375767561,18.958624736657l0,117.274821499756c-9.171585748575,7.246863072138 -14.88155986816,17.354293051309 -14.88155986816,28.535488331698c0,21.989029031204 22.066369911269,39.879502925736 49.191154219653,39.879502925736l183.882671331139,-0.046319287504c6.279687670022,-0.002807229546 12.180636191021,-2.414217409273 16.197517928323,-6.619447268681c3.907753507923,-4.091537062809 5.570354179056,-9.405622592755 4.610667691278,-14.648123769287l36.728068493768,5.77166394589c0.508730128136,0.078602427279 1.030298871494,0.120710870464 1.54544830724,0.120710870464c1.832712322813,0 3.586788127396,-0.494072400038 5.071253012336,-1.42186176488c1.911348841041,-1.193072556908 3.204839324568,-3.041633212729 3.551481935537,-5.067049329928l0.993387852732,-5.837633840213c0.144434421238,-0.837958019381 0.126781325309,-1.678723268308 -0.048144807079,-2.505452369507c-0.63230179964,-2.984085007043 -3.232121381913,-5.351983128813 -6.621515800284,-6.032736293637l-12.942928969774,-2.598090944514l24.330780670891,-3.90906714234c2.293297643869,-0.369150685255 4.284887830043,-1.494849733067 5.605660370914,-3.17076577183c1.317562887066,-1.67451242399 1.810244746176,-3.697121311643 1.388175270782,-5.694465133384zm-52.521170042626,-77.795348784278c2.765116753245,0 5.483693526313,0.381783218211 8.096351723808,1.138331580768c2.338232797143,6.222224287969 1.461997308303,12.934310131658 -2.193798375906,18.477184869576l-12.378029900045,0l3.952688661197,-3.461314029807c1.790986823344,-1.572048545573 1.786172342636,-4.11680212872 -0.009628961416,-5.684639829974c-1.799010957857,-1.566434086482 -4.705352478534,-1.563626856936 -6.496339301877,0.007018073864l-2.091089454137,1.831717278547c-0.978944410609,-2.819862078622 -2.692899542626,-5.346368669722 -4.938052379416,-7.416700459651c4.559313230394,-3.166554927512 10.1601591206,-4.891597483324 16.057897987794,-4.891597483324zm-25.908325516184,-20.132046686746c8.296955086637,0 15.045252212229,5.92044711181 15.045252212229,13.199593323723c0,0.136150632965 -0.006419307611,0.268090421611 -0.009628961416,0.402837439803c-4.846577245966,1.376946092149 -9.307996035299,3.677470704823 -13.114645448356,6.803320803922c-0.606624569197,-0.200716912515 -1.221273272907,-0.387397677302 -1.850365418741,-0.540391687541c-1.344844944411,-6.348549617524 -6.239566997456,-11.43946039859 -12.702204934378,-13.81718382377c2.68327058121,-3.633958646865 7.338873425763,-6.048176056138 12.631592550662,-6.048176056138zm-24.285845517617,-22.382041167597c3.118178671825,0 6.188212536571,0.44073503867 9.139489210522,1.315187042145c2.375143815904,6.175905000466 1.890486091307,12.809388416875 -1.136217447067,18.555787296854c-2.485876872186,1.98190405924 -4.504749115704,4.408754001469 -5.88329542507,7.135977505084c-0.821671374151,0.042108443185 -1.641737921399,0.122114485237 -2.448965853425,0.2428253557c-3.602836396422,0.550216990951 -6.96013427674,1.915934164917 -9.768581356356,3.897838224158c-0.958081660875,-1.534150946707 -2.131210126703,-2.947591022949 -3.476055071113,-4.219266007137l10.535688615817,-9.235785205242c1.792591650246,-1.572048545573 1.787777169538,-4.115398513947 -0.00641930761,-5.683236215201c-1.797406130955,-1.566434086482 -4.708562132339,-1.563626856936 -6.499548955683,0.007018073864l-11.514633026426,10.09199021667c-2.190588722101,-0.905331528477 -4.559313230394,-1.535554561479 -7.050004583288,-1.828910049002c1.075234024767,-4.794748063998 3.736037029341,-9.314387632521 7.854022861509,-12.923081213475c5.413081142597,-4.742814317403 12.607520147122,-7.356345024418 20.254520338192,-7.356345024418zm-35.20187810936,62.129604304687l-3.986390026152,0c-0.670817645303,-1.493446118295 -2.326999008825,-2.551771657011 -4.272049214822,-2.551771657011s-3.60123156952,1.061132768262 -4.272049214822,2.551771657011l-4.686094555703,0c1.088072639989,-1.549590709208 0.866606527424,-3.603079121863 -0.667607991497,-4.943531229919c-1.794196477149,-1.566434086482 -4.705352478534,-1.563626856936 -6.496339301878,0.008421688637l-4.33142781022,3.793970730968c-0.388368110439,0.341078389798 -0.688470741232,0.729879681873 -0.909936853796,1.141138810313l-9.349721534767,0c-3.501732301556,-4.699302259446 -5.639361735869,-10.247791456455 -5.891319559583,-16.217365085314l72.886423437099,0c-0.255167477519,5.96957362886 -2.392796911833,11.518062825869 -5.894529213388,16.217365085314l-9.730065510693,0c-0.219861285662,-0.412662743213 -0.521568743357,-0.801464035288 -0.90672719999,-1.141138810313l-4.329822983317,-3.795374345741c-1.790986823344,-1.5706449308 -4.702142824729,-1.574855775119 -6.496339301878,-0.007018073864c-1.535819345824,1.340452108056 -1.757285458388,3.392536905938 -0.666003164594,4.943531229919zm-10.688147171568,-24.251656045011c1.731608227946,-5.61305547656 7.587621595672,-9.755122671191 14.525288295775,-9.755122671191s12.793680067828,4.142067194631 14.523683468872,9.755122671191l-29.048971764646,0zm9.396261514944,-49.4086436185c4.369943655883,4.129434661675 7.260236907534,9.035068292727 8.674089408757,14.189141738571c-2.344652104754,2.227536644486 -4.292911964556,4.692284185581 -5.831940964186,7.314236581234c-0.69328522194,-0.373361529574 -1.511746942285,-0.595132663681 -2.389587258028,-0.595132663681l-6.124019460466,0c-2.535626506168,0 -4.591409768447,1.800837753545 -4.591409768447,4.019952709394s2.055783262279,4.017145479849 4.591409768447,4.017145479849l5.372960470032,0c-0.301707457696,1.110259285311 -0.537617012384,2.233151103577 -0.704519010258,3.364464610481c-1.826293015202,0.418277202304 -3.570739858369,1.014813480758 -5.198034337644,1.776976302407c-3.063614557135,-4.62210344694 -8.130053088763,-8.067977714245 -14.141734666044,-9.44773103594c-0.003209653805,-0.012632532956 -0.003209653805,-0.023861451138 -0.008024134513,-0.033686754548c-0.361086053094,-1.819084745592 -0.986968545122,-3.544127301404 -1.845550938033,-5.147055371979l22.196360890383,-19.458311595786zm-83.049792211505,36.256773197053c-0.268006092741,-0.658295328459 -0.473423936278,-1.334837648964 -0.606624569197,-2.014187199016c-1.319167713968,-6.643308719819 3.803439759251,-12.990454722571 11.411924104657,-14.149840524931c0.802413451319,-0.122114485236 1.617665517859,-0.183873535241 2.423288622983,-0.183873535241c3.026703538375,0 5.918601616928,0.844976093245 8.362752989646,2.44228970473c1.012645775564,0.659698943232 2.291692816967,0.927789364843 3.535433666511,0.739704985283c1.243740849544,-0.189487994333 2.344652104754,-0.818307412562 3.044356634304,-1.737675088767c2.156887357145,-2.846530759306 5.456411468969,-4.734392628766 9.291947766273,-5.319699989038c0.804018278222,-0.120710870464 1.620875171664,-0.183873535241 2.428103103691,-0.183873535241c6.806070894087,0 12.589867051193,4.259970835548 13.754971382508,10.128484200764c0.129990979114,0.672331476187 0.20060336283,1.374138862604 0.20060336283,2.082964322884c0.004814480708,2.080157093339 1.821478534494,3.812217723015 4.193412696593,3.996091258256c5.135446088441,0.393012136393 9.508599398129,3.221295903652 11.533890949258,7.204754628952c-2.712157465458,2.847934374079 -4.593014595349,6.326091781159 -5.308767393926,10.145327578038l-26.197194358659,0c-3.257798612355,0 -6.051802249847,1.75872931036 -7.218511408065,4.24593468782c-5.764538234275,-3.43324173435 -12.557770513141,-5.283206004944 -19.678387480145,-5.283206004944c-4.45981396243,0 -8.828152791411,0.734090526192 -12.98946894995,2.184024586528c-0.704519010258,0.247036200019 -1.336820809897,0.610572426182 -1.874437822281,1.080783375082c-0.544036319994,0.477229022763 -0.962896141582,1.035867702351 -1.237321541934,1.649247358079c-1.055976101936,2.331404137676 -1.762099939096,4.728778169675 -2.144048741924,7.141591964175c-1.643342748301,-1.638018439896 -2.805237425811,-3.67606709005 -3.257798612355,-5.963959169768c-1.081653332378,-5.454447007229 2.182564587587,-10.880821719003 7.932659379739,-13.200996938496c2.16009701095,-0.873048388702 3.201629670762,-3.043036827502 2.399216219443,-5.00388666515zm13.697197614013,36.30449609933l1.25336981096,1.099030367128l-11.034789782537,0c-2.477852737673,-5.026344501516 -2.85338223289,-10.747478315584 -0.840929296982,-16.113497592125c2.619077505105,-0.756548362557 5.334444624368,-1.139735195541 8.09795655071,-1.139735195541c6.923223257979,0 13.437215655786,2.369301736543 18.336752189539,6.662959326639c0.653164549374,0.56986759777 1.258184291668,1.170614720543 1.829502669007,1.789608835362c0.779945874682,3.080934426369 1.973937090244,6.028525449318 3.514570916777,8.799261010891l-6.92322325798,0l-7.727241536201,-6.775248508465c-1.792591650247,-1.569241316028 -4.702142824729,-1.573452160346 -6.496339301878,-0.005614459091c-1.80061578476,1.567837701254 -1.803825438565,4.113994899174 -0.009628961416,5.683236215201zm-19.56604959696,1.099030367128l-16.377258541418,0c0.7301962407,-3.892223765066 3.4070475143,-7.210369088044 7.122221793907,-9.167008081373c2.200217683516,2.578440337694 5.069648185433,4.661404660579 8.377196431769,6.073441122049c0.235909554688,1.042885776215 0.52317357026,2.07594624902 0.877840315743,3.093566959325zm-46.363449217205,-127.890360026694l34.298360563174,0l0,16.628624213754l-34.298360563174,0l0,-16.628624213754zm27.948060509437,24.665722402997l0,8.40765248927l-21.597760455699,0l0,-8.40765248927l21.597760455699,0zm-42.869741050163,43.669262812385l29.833732120036,0c2.535626506167,0 4.594619422252,-1.798030523999 4.594619422252,-4.018549094621c0,-2.217711341076 -2.058992916084,-4.018549094621 -4.594619422252,-4.018549094621l-29.833732120036,0l0,-8.25886932335c0,-6.027121834546 5.588007274985,-10.929948236052 12.458271245177,-10.929948236052l39.220364673564,0c6.871868797095,0 12.45987607208,4.902826401506 12.45987607208,10.929948236052l0,8.25886932335l-8.579404621502,0c-2.53723133307,0 -4.593014595349,1.800837753545 -4.593014595349,4.018549094621c0,2.221922185395 2.055783262279,4.018549094621 4.593014595349,4.018549094621l8.579404621502,0l0,3.567988752542c-5.263832240652,4.514025109432 -7.998457282747,11.13206876334 -6.648797857628,17.941004026354c0.003209653805,0.012632532956 0.004814480708,0.026668680684 0.008024134513,0.040704828412c-7.372574790718,4.422790149198 -11.29798139457,12.285840106609 -9.733275164498,20.17836597425c0.09147513345,0.460385645489 0.205417843537,0.915156831887 0.330594341943,1.362909944421c-2.296507297674,1.108855670538 -4.357105040662,2.53633189451 -6.124019460466,4.209440703727l-41.971037984686,0l0,-47.300414229705zm0,55.334705189402l36.639803014123,0c-0.489472205304,1.355891870557 -0.834509989371,2.765121102481 -1.001411987246,4.22066962191l-0.773526567071,0c-4.227114061548,0 -7.669467767706,3.010753687727 -7.669467767706,6.713489458461c0,6.378025527754 0.680446606718,12.642358258908 1.993195013076,18.770540357098c-1.320772540871,-0.092638575007 -2.675246446697,-0.141765092056 -4.05218792916,-0.141765092056c-5.555910736932,0 -10.848629861832,0.769180895512 -14.902422617895,2.168584824027c-6.202655978695,2.143319758116 -7.916611110712,5.184952970846 -8.292140605929,7.290375130096c-0.656374203179,0.284933798885 -1.301514618039,0.588114589817 -1.940235725289,0.89690983984l0,-39.918804139375l-0.001604826902,0zm58.174975220619,49.360920716224c1.65457653662,1.157982187587 2.665617485281,2.144723372889 3.252984131647,2.85354883317l-0.173321305485,0c-2.599819582273,0 -7.271470695852,-0.91656044666 -12.585052570485,-3.486579095718c-1.97714674405,-0.960072504618 -3.800230105446,-2.040855879699 -5.271856375165,-3.131464558191c-1.710745478212,-1.270271369414 -4.225509234645,-1.270271369414 -5.93785953976,0c-1.470021442816,1.090608678491 -3.29149997731,2.172795668346 -5.267041894457,3.128657328645c-5.313581874634,2.572825878603 -9.986837815115,3.489386325263 -12.585052570485,3.489386325263l-0.173321305485,0c0.585761819463,-0.708825460281 1.596802768125,-1.695566645583 3.251379304744,-2.85354883317c1.447553866179,-1.01060263644 2.055783262279,-2.68511506043 1.547053134143,-4.241723843502c-0.511939781941,-1.558012397845 -2.041339820155,-2.697747593385 -3.882076277481,-2.884428358172c-4.482281539067,-0.460385645489 -7.319615502931,-1.458355748974 -8.64520252451,-2.185428201301c1.662600671133,-0.90673514325 5.867247156044,-2.450711393367 13.434006001981,-2.450711393367c6.266849054801,0 10.845420208026,1.150964113723 13.040823410835,2.231747488805c1.3994090591,0.686367623915 3.102130402799,0.686367623915 4.498329808093,0c2.198612856614,-1.080783375082 6.778788836742,-2.231747488805 13.042428237737,-2.231747488805c7.569968499742,0 11.773010157751,1.548187094435 13.435610828883,2.45211500814c-1.325587021579,0.725668837555 -4.162920985442,1.723638941039 -8.646807351412,2.184024586528c-1.839131630423,0.190891609105 -3.373346149344,1.325012345555 -3.878866623675,2.884428358172c-0.513544608844,1.558012397845 0.096289614158,3.231121207062 1.543843480338,4.241723843502zm-9.190843671407,48.907553144599l0.158877863361,0.743915829602c0.545641146897,2.58124756724 1.699511689893,4.950549303783 3.309153073239,7.011055790302l-27.330202151921,0c-22.058345776756,0 -40.003520202052,-14.287394772669 -40.003520202052,-31.845211966039c0,-12.002309922497 8.38361573938,-22.467661668741 20.729549101372,-27.895439995286c1.418666981932,0.923578520524 3.187186228638,1.723638941039 5.283090163484,2.369301736542c-0.832905162469,1.240795459185 -1.409038020516,2.575633108149 -1.547053134143,3.969422577572c-0.181345439998,1.851367885367 0.467004628667,3.612904425272 1.827897842104,4.954760148101c1.795801304052,1.774169072861 4.552893922784,2.672482527474 8.197455818674,2.672482527474c4.851391726674,0 11.222554530146,-1.678723268309 17.0352375715,-4.494374502612c1.3384256368,-0.648470025049 2.604634062981,-1.330626804646 3.788996317128,-2.047873953564c1.182757427244,0.717247148918 2.448965853425,1.399403928515 3.787391490225,2.047873953564c5.814287868257,2.815651234303 12.182241017924,4.494374502612 17.0352375715,4.494374502612c3.642957068988,0 6.40004968772,-0.899717069386 8.197455818674,-2.672482527474c1.359288386534,-1.341855722829 2.009243282102,-3.103392262734 1.827897842104,-4.954760148101c-0.136410286724,-1.393789469423 -0.715752798576,-2.728627118388 -1.548657961045,-3.969422577572c2.09911358865,-0.647066410276 3.866028008454,-1.445723216018 5.283090163484,-2.369301736542c9.791048932993,4.303482893506 17.088196859287,11.780538788389 19.691226095365,20.672438374287l-32.492930297707,10.798008447406c-9.515018705739,3.162344083193 -15.078953577184,11.787556862252 -13.230192985346,20.515233519729zm169.15998932634,3.973633421891c-2.262805932719,2.372108966088 -5.597636236401,3.732211680963 -9.14430369123,3.733615295736l-4.822504842426,0l-3.013864923154,-14.224232107891c-0.460585321057,-2.184024586528 -2.854987059792,-3.625536958228 -5.352097720297,-3.219892288879c-2.497110660504,0.404241054576 -4.145267889513,2.498434295643 -3.681472914651,4.681055267399l2.704133330945,12.76727997369l-15.80594016408,0.005614459091l-2.039734993253,-9.620375652998c-0.460585321057,-2.17981374221 -2.8598015405,-3.62132611391 -5.355307374102,-3.21989228888c-2.493901006699,0.404241054576 -4.142058235708,2.501241525189 -3.679868087748,4.683862496944l1.728398574141,8.160616289252l-36.769793993236,0.012632532956l-2.769931233953,-13.066249920304c-0.46219014796,-2.184024586528 -2.856591886695,-3.625536958228 -5.3537025472,-3.221295903652c-2.495505833601,0.405644669349 -4.143663062611,2.502645139961 -3.679868087748,4.685266111717l2.458594814841,11.605086941785l-53.686274373942,0.019650606819l-0.003209653806,0c-5.742070657638,0 -10.660865114222,-3.563777908223 -11.702397774034,-8.47642961314l-0.157273036459,-0.743915829602c-1.038323006007,-4.904230016279 2.094299107942,-9.75512267119 7.454420962752,-11.537713432689l18.055907481578,-6.000453153862l1.343240117508,6.35135684707c0.410835687075,1.935584771737 2.339837624046,3.287265797975 4.512773250217,3.287265797975c0.277635054156,0 0.56008458902,-0.023861451138 0.840929296982,-0.068777123869c2.497110660505,-0.404241054576 4.143663062611,-2.499837910416 3.681472914651,-4.683862496944l-1.649762055911,-7.785851144906l26.802214100953,-8.905935733626c2.373538989001,-0.788831502332 3.565925377661,-3.109006721825 2.664012658379,-5.1821457413c-0.901912719283,-2.07594624902 -3.559506070051,-3.118832025235 -5.928230578344,-2.330000522903l-12.471109860398,4.143470809404c-3.500127474653,-10.834502431499 -12.488762956327,-19.885010486728 -24.407812362218,-25.067156228028c-0.372319841412,-2.10542215925 -2.087879800332,-5.147055371979 -8.290535779027,-7.290375130095c-4.055397582966,-1.399403928515 -9.348116707865,-2.1699884388 -14.9056322717,-2.1699884388c-3.822697682083,0 -7.473678885584,0.367747070482 -10.697776132983,1.04007854667l0,-2.426849942229c0,-2.217711341076 -2.057388089182,-4.018549094621 -4.594619422252,-4.018549094621c-1.072024370962,0 -2.057388089182,0.324235012524 -2.838938790766,0.863223085292c-0.725381759992,-4.189790096907 -1.13140296636,-8.448357317683 -1.197200869368,-12.765876358918l149.642084536459,0c2.535626506168,0 4.59301459535,-1.800837753545 4.59301459535,-4.017145479848c0,-2.219114955849 -2.057388089182,-4.018549094621 -4.59301459535,-4.018549094621l-1.880857129891,0c2.923994616606,-5.269169857216 4.578571153226,-11.179791665616 4.578571153226,-17.421666560405c0,-3.545530916177 -3.102130402799,-6.46504964367 -7.053214237093,-6.797706344831c1.717164785822,-1.419054535334 3.867632835357,-2.374916195634 6.258824920287,-2.741259651343c0.701309356452,-0.105271107962 1.415457328126,-0.160012084103 2.115161857677,-0.160012084103c5.933045059052,0 10.972201533334,3.712561074144 11.986452135802,8.824526076802c0.11554753699,0.590921819363 0.174926132387,1.201494245545 0.174926132387,1.816277516046c0.004814480708,2.078753478566 1.824688188299,3.816428567333 4.193412696593,3.997494873029c5.488508007021,0.42108443185 9.982023334407,4.033988857123 10.922451899352,8.781014018844c0.251957823714,1.261849680777 0.221466112564,2.509663213826 -0.03049171115,3.702735770734l-4.928423418,0c-2.538836159973,0 -4.593014595349,1.799434138772 -4.593014595349,4.018549094622c0,2.216307726303 2.054178435376,4.017145479848 4.593014595349,4.017145479848l35.70739858369,0c-0.112337883185,7.37178478692 -1.202015350076,14.570924956781 -3.225702074302,21.555312066399l-24.898889394425,12.855707704379c-1.521375903701,-4.636139594668 -5.06162405092,-8.567664573374 -9.938693008036,-10.955213301963c-5.467645257287,-2.678096986565 -11.968799039873,-3.094970574097 -17.829626888305,-1.146753269405l-51.277429193082,17.035672497876c-2.373538989001,0.790235117105 -3.565925377661,3.110410336598 -2.665617485281,5.183549356073c0.905122373087,2.07594624902 3.561110896953,3.118832025235 5.928230578344,2.330000522903l6.754716433202,-2.24438002176l2.09911358865,9.903905837111c0.40762603327,1.93698838651 2.339837624046,3.288669412748 4.511168423315,3.288669412748c0.277635054156,0 0.560084589021,-0.023861451138 0.842534123885,-0.068777123869c2.493901006699,-0.404241054576 4.140453408805,-2.499837910416 3.683077741554,-4.683862496944l-2.405635527054,-11.339803749719l35.79245440953,-11.892827970215c3.317177207752,-1.100433981901 6.992230814793,-0.864626700065 10.083127429273,0.648470025049c3.087686960675,1.511693110341 5.225316394989,4.115398513947 5.864037502238,7.141591964175l9.295157420078,43.888226716947c0.646745241763,3.024789835456 -0.280844707962,6.116953180007 -2.545255467583,8.484851301777zm16.393306810445,-31.450796214872c-2.144048741924,0.342482004571 -3.715174279606,1.958042608102 -3.761714259782,3.862747854837c-0.048144807079,1.906108861507 1.437924904763,3.577814055952 3.564320550758,4.004512946893l34.205280602822,6.862272624381l-0.853767912203,5.015115583333l-39.653667937277,-6.233453206152l-6.199446324889,-29.270982472663l34.537479771667,-17.831522074072l2.877454636429,4.456476903745l-29.129213109778,17.031461653558c-1.815059226883,1.058325538716 -2.524392717849,3.08654888546 -1.704326170601,4.852296269684c0.818461720345,1.765747384224 2.943252539438,2.784771709301 5.087301281361,2.440886089957l45.761639128716,-7.350730565327l1.017460256272,4.811591441272l-45.748800513495,7.349326950554z"
           stroke="null" />
      </g>
      <g
         id="title"
         stroke="null">
        <path
           id="path14"
           d="m287.235751572005,618.69683552158c-4.893027482346,-2.746762383087 -10.315030903721,-4.12014357463 -16.398254189334,-4.12014357463c-4.496295521456,0 -8.595859082023,0.824028713552 -12.430934673075,2.472086147527c-3.967319582426,1.648057427103 -7.273419221215,3.845467325327 -10.050542934206,6.729567833065l0,-33.647839165327c0,-2.060071787315 -0.661219929081,-3.708129214418 -1.851415799839,-5.081510405962c-1.322439859485,-1.236043071015 -2.909367691133,-1.922733662664 -4.893027482346,-1.922733662664s-3.570587621537,0.686690594397 -4.893027482346,1.922733662664c-1.322439859485,1.373381190169 -1.851415799839,3.021438618647 -1.851415799839,5.081510405962l0,93.3899217396c0,2.060071787315 0.528975944324,3.708129214419 1.851415799839,5.081510405962c1.322439859485,1.373381190169 2.909367691133,1.922733662664 4.893027482346,1.922733662664s3.570587621537,-0.549352476618 4.893027482346,-1.922733662664c1.190195873405,-1.373381190169 1.851415799839,-3.021438618647 1.851415799839,-5.081510405962l0,-38.729349530059c0,-3.296114854207 0.793463915162,-6.180215348202 2.512635730243,-8.926977731289c1.719171821698,-2.609424258435 4.099563560567,-4.66949604575 7.141175243074,-6.317553472854c3.041611682507,-1.510719302452 6.479955312669,-2.334748022875 10.182786912347,-2.334748022875c6.347711321295,0 11.372982795015,1.922733662663 15.208058346366,5.768201001734c3.835075591052,3.845467325327 5.818735382265,9.3389920915 5.818735382265,16.755250547824l0,33.785175860679c0,2.060071787315 0.528975944323,3.708129214418 1.851415799839,5.081510405962c1.322439859485,1.373381190169 2.909367691133,1.922733662663 4.893027482346,1.922733662663c1.851415799839,0 3.438343630163,-0.549352476617 4.760783490971,-1.922733662663c1.322439859485,-1.373381190169 1.983659791213,-3.021438618647 1.983659791213,-5.081510405962l0,-33.785177235005c0,-7.416258428837 -1.45468383895,-13.733811901691 -4.099563560567,-18.952660487277c-2.777123699758,-5.21884851687 -6.61219929081,-9.3389920915 -11.372982795015,-12.085754474587l-2.6467e-8,5.63474e-7z"
           stroke="null" />
        <path
           id="path16"
           d="m365.529242939381,690.936686009854c8.728103073398,0 16.398254189334,-2.746762383087 23.142697564153,-8.514963371077c1.45468383895,-1.09870495186 2.115903769354,-2.609424258435 2.380391752102,-4.39481981019c0.132243985948,-1.922733662663 -0.264487972162,-3.433452978859 -1.45468383895,-4.94417228131c-1.057951887324,-1.373381190169 -2.512635730243,-2.197409898223 -4.231807551941,-2.334748022875c-1.719171821698,-0.137338119017 -3.306099652022,0.274676238309 -4.628539512831,1.510719302452c-4.496295521456,3.708129214418 -9.521566981943,5.493524766174 -15.208058346367,5.493524766174c-6.61219929081,0 -12.298690694934,-2.334748022875 -16.927230207765,-7.278920304185c-4.760783490971,-4.806834170402 -7.008931251699,-10.712373283044 -7.008931251699,-17.579279240761c0,-6.866905943974 2.248147760728,-12.772445070359 7.008931251699,-17.716617310439c4.628539512831,-4.806834170402 10.315030903721,-7.278920304185 16.927230207765,-7.278920304185c5.422003421376,0 10.315030903721,1.785395551755 14.67908246027,5.21884851687c4.231807551941,3.433452978859 7.008931251699,7.828272789049 8.463615103883,13.184459430571l-23.142697564153,0c-1.719171821698,0 -3.306099652022,0.686690594397 -4.496295521456,1.922733662663c-1.190195873405,1.236043071015 -1.851415799839,2.884100493995 -1.851415799839,4.66949604575s0.661219929081,3.433452978858 1.851415799839,4.66949604575c1.190195873405,1.236043071015 2.777123699758,1.922733662664 4.496295521456,1.922733662664l30.416116825068,0c1.719171821698,0 3.173855660648,-0.686690594397 4.364051530082,-1.922733662664c1.322439859485,-1.236043071015 1.983659791213,-2.884100493995 1.983659791213,-4.66949604575c0,-10.575035158392 -3.702831599678,-19.502012903424 -10.844006842752,-26.918271277288c-7.141175243074,-7.416258428837 -15.737034364798,-11.261725754164 -25.919821197744,-11.261725754164c-10.182786912347,0 -18.778646007604,3.845467325327 -25.919821197744,11.261725754164c-7.141175243074,7.416258428837 -10.711762864611,16.343236201355 -10.711762864611,26.918271277288c0,10.575035158392 3.570587621537,19.502012903424 10.711762864611,26.918271277288c7.141175243074,7.416258428837 15.737034364798,11.124387643255 25.919821197744,11.124387643255l-1.72035e-7,0z"
           stroke="null" />
        <path
           id="path18"
           d="m424.977965138918,585.048996081388c-1.322439859485,1.373381190169 -1.851415799839,3.021438618647 -1.851415799839,4.94417228131l0,74.986612981307c0,4.94417228131 0.793463915162,9.338992091501 2.512635730243,13.184459430571c1.586927830324,3.845467325327 3.967319582426,6.866905943974 7.0089312517,9.06431585594c3.041611682507,2.197409898224 6.479955312669,3.158776743299 10.315030903721,3.158776743299l0.264487972162,0c2.644879721617,0 4.760783490971,-0.549352476617 6.47995531267,-1.922733662663c1.586927830324,-1.236043071015 2.512635730243,-2.884100493995 2.512635730243,-4.94417228131c0,-1.922733662663 -0.661219929081,-3.570791089767 -1.719171821698,-4.94417228131c-1.057951887324,-1.236043071015 -2.512635730243,-1.922733662664 -4.231807551941,-1.922733662664l-3.306099652022,0c-1.983659791213,0 -3.570587621537,-1.09870495186 -4.760783490971,-3.296114854207c-1.322439859485,-2.197409898224 -1.851415799839,-4.94417228131 -1.851415799839,-8.377625260169l0,-74.986612981307c0,-1.922733662664 -0.661219929081,-3.570791089767 -1.851415799839,-4.94417228131c-1.322439859485,-1.236043071015 -2.909367691133,-1.922733662663 -4.760783490971,-1.922733662663c-1.983659791213,0 -3.570587621537,0.686690594397 -4.760783490971,1.922733662663l-2.647e-9,-2.7487e-8z"
           stroke="null" />
        <path
           id="path20"
           d="m529.176822488966,618.559497726767c-0.661219929081,-0.961366832706 -1.586927830324,-1.785395551755 -2.644879721617,-2.334748022875c-0.925707901243,-0.412014357463 -1.983659791213,-0.686690594397 -3.041611682507,-0.686690594397c-1.190195873404,0 -2.248147760728,0.412014357463 -3.306099652022,0.961366832706c-1.057951887324,0.549352476617 -1.719171821698,1.373381190169 -2.248147760728,2.472086147527l-22.745965616497,51.501794682877l-23.010453493378,-51.501794682877c-0.528975944323,-1.09870495186 -1.322439859485,-1.922733662663 -2.248147760728,-2.472086147527c-1.057951887324,-0.549352476617 -1.983659791213,-0.961366832706 -3.041611682507,-0.961366832706c-1.057951887324,0 -1.983659791213,0.274676238309 -2.777123699758,0.686690594397c-2.512635730243,1.373381190169 -3.702831599678,3.158776743299 -3.702831599678,5.630862877082c0,0.961366832706 0.132243985949,1.785395551755 0.528975944323,2.472086147527l28.035725006798,61.390139135552c0.793463915162,1.648057427103 1.586927830324,2.884100493995 2.644879721617,3.570791089767c0.925707901243,0.686690594397 2.115903769354,0.961366832706 3.702831599678,0.961366832706c2.644879721617,0 4.760783490971,-1.510719302452 6.08322335178,-4.532157921098l28.035725006798,-61.390139135552c0.396731958243,-0.824028713552 0.661219929081,-1.785395551755 0.661219930404,-2.609424258435c0,-1.098704951861 -0.396731958243,-2.197409898224 -0.925707901243,-3.158776743299l9.263e-9,-1.374e-9z"
           stroke="null" />
        <path
           id="path22"
           d="m611.997594264699,621.306260494665c0,-2.472086147527 -1.45468383895,-4.257481685539 -4.099563560567,-5.356186641522c-1.057951887324,-0.412014357463 -2.115903769354,-0.686690594397 -3.173855660647,-0.686690595772c-2.380391752103,0 -4.099563560567,1.373381190169 -5.157515451861,3.982805449978l-21.291281764314,49.853737159571l-24.20064946868,-49.991075366682c-1.322439859485,-2.472086147527 -3.173855660648,-3.845467325327 -5.55424741275,-3.845467325327c-1.057951887324,0 -1.851415799839,0.274676238309 -2.644879721617,0.549352476617c-1.190195873405,0.549352476617 -2.115903769354,1.373381190169 -2.777123699758,2.334748022875c-0.793463915162,1.09870495186 -1.057951887323,2.197409898223 -1.057951887323,3.296114854207c0,1.09870495186 0.132243985948,2.060071787315 0.661219929081,2.884100493995l29.754896868197,58.643376779951l-13.224398594854,30.901076809726c-0.528975944324,1.09870495186 -0.793463915162,2.197409898224 -0.793463915162,3.296114854207c0,2.472086147527 1.322439859485,4.257481685538 3.967319582426,5.356186641522c1.190195873404,0.549352476617 2.248147760728,0.824028713552 3.173855660648,0.824028713552c2.380391752102,0 4.099563560567,-1.373381190169 5.157515451861,-4.257481685538l40.466659719574,-94.488625884731c0.528975944324,-1.236043071015 0.793463915162,-2.334748022875 0.793463915162,-3.296114854207l1.0587e-8,9.7577e-8z"
           stroke="null" />
        <path
           id="path24"
           d="m643.274214962089,676.378845401484c-1.851415799839,-1.922733662663 -3.967319582426,-2.884100493995 -6.347711321295,-2.884100493995c-2.512635730243,0 -4.62853951283,0.961366832706 -6.479955312669,2.884100493995s-2.644879721617,4.12014357463 -2.644879721617,6.729567833065s0.793463915162,4.806834170402 2.644879721617,6.729567833065s3.967319582426,2.746762383087 6.479955312669,2.746762383087s4.628539512831,-0.824028713552 6.47995531267,-2.746762383087c1.719171821698,-1.922733662663 2.644879721617,-4.12014357463 2.644879721617,-6.729567833065s-0.925707901243,-4.806834170402 -2.777123699758,-6.729567833065l-1.3234e-8,0z"
           stroke="null" />
        <path
           id="path26"
           d="m732.23814215607,625.975756512929c-7.141175243074,-7.416258428837 -15.737034364798,-11.261725754164 -25.919821197744,-11.261725754164c-10.050542934206,0 -18.778646007604,3.845467325327 -25.919821197744,11.261725754164c-7.141175243074,7.416258428837 -10.711762864611,16.343236201356 -10.711762864611,26.918271277288c0,10.575035158392 3.570587621537,19.502012903424 10.711762864611,26.918271277288c7.141175243074,7.416258428837 15.869278303238,11.124387643256 25.919821197744,11.124387643256c9.124835034287,0 17.191718216981,-3.021438618647 24.068405397905,-9.201653966849l0,2.609424258435c0,1.922733662663 0.528975944324,3.433452978859 1.851415799839,4.66949604575c1.190195873405,1.373381190169 2.644879721618,1.922733662664 4.496295521456,1.922733662664c1.719171821698,0 3.173855660648,-0.549352476618 4.496295521456,-1.922733662664c1.190195873405,-1.236043071015 1.851415799839,-2.746762383087 1.851415799839,-4.66949604575l0,-31.450429225873c0,-10.575035158392 -3.570587621537,-19.502012903424 -10.844006842752,-26.918271277288l0,1.3743e-8zm-25.919821197744,51.776470822234c-6.61219929081,0 -12.298690694935,-2.334748022875 -16.927230207765,-7.278920304185c-4.760783490971,-4.806834170402 -7.008931251699,-10.712373283044 -7.008931251699,-17.579279240761c0,-6.866905943974 2.248147760728,-12.772445070359 7.008931251699,-17.579279240761c4.62853951283,-4.94417228131 10.315030903721,-7.416258428837 16.927230207765,-7.416258428837c6.61219929081,0 12.298690694934,2.472086147527 16.927230207765,7.416258428837c4.760783490971,4.806834170402 7.141175243074,10.712373283044 7.141175243074,17.579279240761c0,6.866905943974 -2.380391752102,12.772445070359 -7.141175243074,17.579279240761c-4.628539512831,4.94417228131 -10.315030903722,7.278920304185 -16.927230207765,7.278920304185z"
           stroke="null" />
        <path
           id="path28"
           d="m775.511772209396,617.186117029981c-1.322439859485,1.373381190169 -1.851415799839,3.021438618647 -1.851415799839,5.081510405962l0,61.115462996194c0,2.060071787315 0.528975944323,3.708129214418 1.851415799839,5.081510405962c1.322439859485,1.373381190169 2.909367691133,1.922733662664 4.893027482346,1.922733662664s3.570587621537,-0.549352476617 4.893027482346,-1.922733662664c1.190195873405,-1.373381190169 1.851415799839,-3.021438618647 1.851415799839,-5.081510405962l0,-61.115462996194c0,-2.060071787315 -0.661219929081,-3.708129214419 -1.851415799839,-5.081510405962c-1.322439859485,-1.236043071015 -2.909367691132,-1.922733662664 -4.893027482346,-1.922733662664s-3.570587621537,0.686690594397 -4.893027482346,1.922733662664zm10.976250834126,-29.52769556321c-1.719171821698,-1.785395551755 -3.702831599678,-2.746762383087 -6.08322335178,-2.746762383087s-4.496295521456,0.961366832706 -6.215467343154,2.746762383087s-2.512635730243,3.845467325327 -2.512635730243,6.317553472854s0.793463915162,4.66949604575 2.512635730243,6.454891597505c1.719171821698,1.785395551755 3.835075591052,2.609424258435 6.215467343154,2.609424258435s4.364051530082,-0.824028713552 6.08322335178,-2.609424258435c1.719171821698,-1.785395551755 2.644879721617,-3.982805449979 2.644879721617,-6.454891597505s-0.925707901243,-4.532157921099 -2.644879721617,-6.317553472854z"
           stroke="null" />
      </g>
    </g>
  </g>
</svg>
